<svg width="29" height="29" viewBox="0 0 29 29" fill="none" xmlns="http://www.w3.org/2000/svg">
<path d="M22.671 13.2483H6.04246C4.7305 13.2483 3.66695 14.3028 3.66695 15.6036V23.8472C3.66695 25.148 4.7305 26.2026 6.04246 26.2026H22.671C23.983 26.2026 25.0465 25.148 25.0465 23.8472V15.6036C25.0465 14.3028 23.983 13.2483 22.671 13.2483Z" stroke="white" stroke-linecap="round" stroke-linejoin="round"/>
<path d="M8.41797 13.2483V8.5376C8.41797 6.97592 9.04366 5.4782 10.1574 4.37393C11.2711 3.26966 12.7817 2.64928 14.3567 2.64928C15.9318 2.64928 17.4424 3.26966 18.5561 4.37393C19.6698 5.4782 20.2955 6.97592 20.2955 8.5376V13.2483" stroke="white" stroke-linecap="round" stroke-linejoin="round"/>
</svg>
